<svg xmlns="http://www.w3.org/2000/svg" xmlns:xlink="http://www.w3.org/1999/xlink" id="responsive-devices" x="0px" y="0px" viewBox="0 0 1010 1010" xml:space="preserve">
<path id="responsive-devices-responsive-devices" fill="#323B5A" d="M239.4414,536.3262H370.623v94.8846H190.5195  c-3.9062,0-7.082-3.1172-7.082-7.0234v-33.377c0-3.8671,3.1758-7.0625,7.082-7.0625h48.9219V536.3262z M63.4014,461.2461V62.9277  c0-4.3794,3.5903-7.9301,7.9697-7.9301h488.1133c4.3799,0,7.9707,3.5507,7.9707,7.9301v165.8609h63.3613v-12.27V27.6172  C630.8164,12.3882,618.4668,0,603.1992,0H27.6567C12.3887,0,0,12.3882,0,27.6172v198.7646v12.2305v258.2998  c0,15.2676,12.3887,27.6563,27.6567,27.6563H370.623v-55.3921H71.3711C66.9917,469.1763,63.4014,465.6255,63.4014,461.2461z   M776.9902,314.8359H630.8164h-63.3613H421.9316v154.3404v55.3921v59.1796v47.4629v95.5157h193.4981v23.9081h-34.6006  c-2.7617,0-5.0498,2.249-5.0498,5.0107v2.5244c0,2.8018,2.2881,5.0508,5.0498,5.0508h34.6006v33.6934H421.123  c-19.0957,0-34.7187-15.6241-34.7187-34.6797V631.2109v-94.8846v-11.7578v-55.3921V279.2886  c0-19.0562,15.623-34.7188,34.7187-34.7188h146.3321h63.3613h146.9629c19.0957,0,34.7187,15.6626,34.7187,34.7188v162.6255h-35.5078  V314.8359z M607.8945,273.7651c0-5.0893-4.1425-9.2319-9.2324-9.2319c-5.0898,0-9.2324,4.1426-9.2324,9.2319  c0,5.0894,4.1426,9.1924,9.2324,9.1924C603.752,282.9575,607.8945,278.8545,607.8945,273.7651z M1010,512.7324v438.127v3.2755v0.789  c-0.0781,30.418-24.6191,54.9971-55.0762,55.0762H686.2871c-30.418-0.0791-54.998-24.6582-55.0762-55.0762V812.7344v-15.8203  v-70.1875v-15.7813V512.7324c0.0782-30.4179,24.6582-55.0371,55.0762-55.0371h74.8828h15.8203h35.5078h15.7813h126.6445  C985.3809,457.6953,1009.9219,482.3145,1010,512.7324z M788.9043,478.5269c0,3.2348,2.6045,5.8383,5.8398,5.8383h17.7539h15.7813  h18.1875c3.2353,0,5.8398-2.6035,5.8398-5.8383c0-3.2354-2.6045-5.8394-5.8398-5.8394h-18.1875H812.498h-17.7539  C791.5088,472.6875,788.9043,475.2915,788.9043,478.5269z M837.8662,966.6406c0-9.5869-7.7334-17.2802-17.2803-17.2802  c-9.5078,0-17.2412,7.6933-17.2412,17.2802c0,9.5078,7.7334,17.2411,17.2412,17.2411  C830.1328,983.8818,837.8662,976.1484,837.8662,966.6406z M969.9551,517.7432c0-8.128-6.8653-15.0323-15.0313-15.0323H828.2793  H812.498h-35.5078h-15.8203h-74.8828c-8.1269,0-14.9922,6.9043-15.0312,15.0323v193.2021v15.7813v70.1875v15.8203v97.1328  c0.039,8.0879,6.9044,14.9922,15.0312,14.9922h268.6367c7.8516,0,14.4785-6.3906,14.9532-14.123l0.0781,0.0782V517.7432z"></path>
</svg>